<svg xmlns="http://www.w3.org/2000/svg" xmlns:xlink="http://www.w3.org/1999/xlink" width="2000" zoomAndPan="magnify" viewBox="0 0 1500 1499.999933" height="2000" preserveAspectRatio="xMidYMid meet" version="1.0"><defs><g/></defs><g fill="#ffffff" fill-opacity="1"><g transform="translate(378.222642, 689.994062)"><g><path d="M 289.59375 -396.796875 L 289.59375 -321.59375 L 115.203125 -321.59375 L 115.203125 0 L 40 0 L 40 -396.796875 Z M 289.59375 -396.796875 "/></g></g></g><g fill="#ffffff" fill-opacity="1"><g transform="translate(683.823083, 689.994062)"><g><path d="M 280 -252.796875 L 280 -320.796875 L 64 -320.796875 L 64 -396.796875 L 355.203125 -396.796875 L 355.203125 -75.203125 L 408.796875 -75.203125 L 408.796875 0 L 290.40625 0 L 282.40625 -42.40625 L 280 -42.40625 C 273.601562 -30.664062 260.800781 -20.53125 241.59375 -12 C 222.394531 -3.46875 198.394531 0.796875 169.59375 0.796875 C 122.664062 0.796875 86.664062 -11.597656 61.59375 -36.390625 C 36.53125 -61.191406 24 -92.796875 24 -131.203125 C 24 -171.203125 38.929688 -201.46875 68.796875 -222 C 98.660156 -242.53125 138.660156 -252.796875 188.796875 -252.796875 Z M 280 -184.796875 L 200 -184.796875 C 182.9375 -184.796875 168.269531 -182.925781 156 -179.1875 C 143.726562 -175.457031 133.726562 -170.789062 126 -165.1875 C 118.269531 -159.59375 112.671875 -153.195312 109.203125 -146 C 105.734375 -138.800781 104 -131.734375 104 -124.796875 C 104 -110.929688 108.398438 -99.460938 117.203125 -90.390625 C 126.003906 -81.328125 136.800781 -74.925781 149.59375 -71.1875 C 162.394531 -67.457031 176.53125 -66.257812 192 -67.59375 C 207.46875 -68.925781 221.597656 -72.660156 234.390625 -78.796875 C 247.191406 -84.929688 257.992188 -93.597656 266.796875 -104.796875 C 275.597656 -115.992188 280 -129.328125 280 -144.796875 Z M 280 -184.796875 "/></g></g></g><g fill="#ffffff" fill-opacity="1"><g transform="translate(238.218744, 1209.744017)"><g><path d="M 212 -394.40625 C 246.664062 -394.40625 276.128906 -388.535156 300.390625 -376.796875 C 324.660156 -365.066406 344.128906 -348.664062 358.796875 -327.59375 C 373.460938 -306.53125 383.59375 -281.597656 389.1875 -252.796875 C 394.789062 -223.992188 396.257812 -192.796875 393.59375 -159.203125 L 100 -159.203125 C 100 -140.535156 102.929688 -125.332031 108.796875 -113.59375 C 114.660156 -101.863281 122.660156 -92.796875 132.796875 -86.390625 C 142.929688 -79.992188 154.398438 -75.59375 167.203125 -73.1875 C 180.003906 -70.789062 193.601562 -69.59375 208 -69.59375 C 218.132812 -69.59375 228.535156 -69.992188 239.203125 -70.796875 C 249.867188 -71.597656 259.734375 -73.460938 268.796875 -76.390625 C 277.867188 -79.328125 286.003906 -83.726562 293.203125 -89.59375 C 300.398438 -95.46875 305.332031 -103.46875 308 -113.59375 L 384.796875 -113.59375 C 379.460938 -92.257812 371.328125 -74.257812 360.390625 -59.59375 C 349.460938 -44.925781 336.398438 -33.0625 321.203125 -24 C 306.003906 -14.9375 288.9375 -8.269531 270 -4 C 251.0625 0.269531 230.925781 2.40625 209.59375 2.40625 C 145.0625 2.40625 97.992188 -14.394531 68.390625 -48 C 38.796875 -81.601562 24 -130.9375 24 -196 C 24 -224.800781 27.863281 -251.332031 35.59375 -275.59375 C 43.332031 -299.863281 54.929688 -320.796875 70.390625 -338.390625 C 85.859375 -355.992188 105.328125 -369.726562 128.796875 -379.59375 C 152.265625 -389.46875 180 -394.40625 212 -394.40625 Z M 319.203125 -229.59375 C 318.671875 -236 317.335938 -244.664062 315.203125 -255.59375 C 313.066406 -266.53125 308.398438 -277.195312 301.203125 -287.59375 C 294.003906 -298 283.46875 -306.929688 269.59375 -314.390625 C 255.726562 -321.859375 236.796875 -325.59375 212.796875 -325.59375 C 190.929688 -325.59375 172.796875 -322.394531 158.390625 -316 C 143.992188 -309.601562 132.394531 -301.601562 123.59375 -292 C 114.800781 -282.394531 108.671875 -271.992188 105.203125 -260.796875 C 101.734375 -249.597656 100 -239.195312 100 -229.59375 Z M 319.203125 -229.59375 "/></g></g></g><g fill="#ffffff" fill-opacity="1"><g transform="translate(645.419359, 1209.744017)"><g><path d="M 571.203125 -396.796875 L 571.203125 0 L 496 0 L 496 -321.59375 L 343.203125 -321.59375 L 343.203125 0 L 268 0 L 268 -321.59375 L 115.203125 -321.59375 L 115.203125 0 L 40 0 L 40 -396.796875 Z M 571.203125 -396.796875 "/></g></g></g></svg>